<svg xmlns="http://www.w3.org/2000/svg" xml:space="preserve" viewBox="0 0 383.5 67.5"><path d="M58.1 38.6c-20.6 0-34.4-1.1-39.4-2.8-4.8-1.7-6.4-5.6-6.4-10.2 0-6.2 2.9-10 9.1-12.4 6.2-2.3 16.1-4 32.7-4 15.5 0 32.1 2 39.9 3.7l-1.6 9.5c-11-1.9-25.2-3.3-38.4-3.3-12.7 0-20.6.7-24.8 2.1-2.6.8-3.4 2-3.4 3.8 0 1.7.8 2.8 3.3 3.4 3 .7 12.5.8 22.8.8 10.2 0 27.3.1 36.4 2.3 7.2 1.7 9.6 5.8 9.6 11.2 0 6.2-1.8 9.8-6.8 12.2-6.5 3.1-20.6 4.5-34.3 4.5-18.9 0-35.7-2.1-43.5-3.9l1.3-9.5c9.4 1.5 25.4 3.5 42.1 3.5 12.8 0 19.9-.6 24.3-2 2.6-.8 3.3-2.3 3.3-4.3 0-1.8-.8-3.2-4.2-3.7-4.4-.8-12.2-.9-22-.9zM258.3 34v.1l36.6 23.7v.5h-21.4L247.2 41h-.2l-34 22.4c-2 1.3-4.3 2-6.7 2h-17.8v-.5l47.4-30.8V34l-35.8-23.2v-.6h21.4L247 27.1h.1l34.5-22.9c2-1.3 4.3-2 6.7-2H306v.6L258.3 34z"/><path d="M302 46.5s17.5 2.9 30.2 2.9c20.9 0 26.6-3 26.6-7 0-2.9-1.6-4.2-7.4-4.2h-27.6v-8.5h26.5c4.9 0 6.9-1.5 6.9-4.2 0-3.3-3.1-6.4-23.6-6.4-16.3 0-30.8 3-30.8 3l-1.6-9.4s14.1-3.5 32.3-3.5c28.6 0 36.1 6.4 36.1 14.5 0 4.7-1.8 7.6-5.3 9.3v.3c4.5 1.6 6.9 5.1 6.9 9.6 0 10-7.4 16.4-38.9 16.4-15.2 0-31.5-3.1-31.5-3.1l1.2-9.7zm-138.5-16-6.4 8.8h23v6.9c-6.7 1.4-17.5 2.7-27.5 2.7-13.9 0-21.5-.9-26.2-3.3-4-2-5.9-6.1-5.9-10.5s1.4-7.9 4.9-10.5c4-2.9 11.6-4.8 27.2-4.8 11.6.1 26.4 1.5 37.7 3.3l1.7-10c-7.6-1.6-22.6-3.9-39.3-3.9-17.2 0-29.3 3.1-36 7.4-5.9 3.8-9.8 9.8-9.8 18.5 0 8.8 4 15.2 10.3 18.6 7.2 3.9 17.2 5.6 35.4 5.6 16.2 0 32.7-3.2 40.9-5.7V30.5h-30z"/></svg>